<?xml version="1.0" standalone="no"?>
<!DOCTYPE svg PUBLIC "-//W3C//DTD SVG 20010904//EN"
 "http://www.w3.org/TR/2001/REC-SVG-20010904/DTD/svg10.dtd">
<svg version="1.0" xmlns="http://www.w3.org/2000/svg"
 width="1460.000000pt" height="1516.000000pt" viewBox="0 0 1460.000000 1516.000000"
 preserveAspectRatio="xMidYMid meet">

<g transform="translate(0.000000,1516.000000) scale(0.100000,-0.100000)"
fill="#000000" stroke="none">
<path d="M0 15149 c0 -5 5 -7 10 -4 5 3 10 8 10 11 0 2 -4 4 -10 4 -5 0 -10
-5 -10 -11z"/>
<path d="M8255 11590 c-11 -5 -35 -9 -52 -9 -21 -1 -33 -6 -33 -15 0 -21 -76
-26 -385 -26 -211 0 -296 -3 -345 -15 -104 -23 -268 -53 -354 -65 -43 -5 -92
-16 -110 -24 -17 -8 -59 -17 -94 -21 -35 -3 -83 -15 -108 -26 -25 -10 -64 -19
-87 -19 -51 0 -142 -32 -172 -60 -12 -11 -29 -20 -38 -20 -10 0 -28 -7 -41
-15 -12 -8 -50 -18 -84 -21 -48 -5 -62 -10 -62 -23 0 -10 -6 -23 -12 -30 -7
-7 12 -2 42 10 181 74 522 169 780 218 131 24 400 57 585 71 445 32 966 -15
1433 -131 1154 -285 2162 -995 2829 -1989 348 -520 600 -1139 717 -1765 l24
-130 1 422 c1 233 -3 453 -9 490 -5 38 -14 154 -20 258 -6 105 -16 223 -22
263 -12 72 -13 72 -44 72 -24 0 -33 5 -38 23 -3 12 -6 106 -6 208 0 171 -2
188 -20 212 -11 14 -20 37 -20 51 0 14 -8 34 -18 44 -25 23 -97 62 -115 62 -8
0 -17 7 -21 15 -3 8 -16 20 -28 26 -13 5 -44 38 -69 72 -53 71 -95 188 -113
312 -10 69 -15 80 -33 83 -21 3 -43 39 -43 72 0 17 -7 20 -48 20 -42 0 -51 4
-71 31 -28 37 -87 64 -163 73 -32 4 -60 12 -63 17 -4 5 -37 9 -75 9 l-69 0 -3
52 c-3 50 -5 53 -63 99 -33 26 -64 48 -70 49 -5 0 -26 14 -45 30 -33 29 -38
30 -137 30 -96 0 -103 -1 -103 -20 0 -18 -7 -20 -61 -20 -46 0 -67 5 -86 20
-14 11 -39 20 -54 20 -23 0 -29 4 -29 23 0 21 -12 34 -105 110 -65 52 -101 76
-129 83 -14 3 -29 10 -32 15 -3 5 -52 9 -109 9 l-104 0 -3 67 c-3 64 -4 67
-32 74 -44 12 -145 68 -192 106 -23 18 -45 33 -50 33 -5 0 -38 29 -73 64 -34
35 -84 73 -109 85 -26 12 -56 27 -67 34 -11 6 -38 20 -60 30 -22 11 -54 30
-71 43 -17 13 -36 24 -42 24 -7 0 -12 5 -12 10 0 6 -5 10 -11 10 -6 0 -43 20
-82 43 -40 24 -83 47 -97 50 -14 3 -54 13 -90 21 -36 9 -94 21 -130 26 -36 5
-83 14 -105 20 -117 29 -278 40 -610 39 -187 0 -349 -4 -360 -9z"/>
<path d="M6035 11136 c-61 -13 -119 -28 -130 -35 -11 -6 -31 -15 -45 -21 -14
-5 -32 -14 -40 -19 -25 -15 -128 -61 -136 -61 -21 0 -163 -77 -188 -103 -31
-31 -65 -47 -98 -47 -11 0 -43 -13 -70 -30 -26 -16 -55 -30 -64 -30 -16 0 -73
-27 -145 -68 -84 -47 -79 -39 -73 -122 l5 -75 -48 -50 c-26 -28 -66 -59 -88
-69 -22 -10 -48 -23 -57 -27 -10 -5 -29 -9 -42 -9 -14 0 -37 -11 -52 -25 -15
-14 -39 -28 -53 -32 -14 -3 -44 -20 -66 -37 -54 -43 -137 -96 -210 -135 -55
-30 -80 -49 -200 -160 -31 -28 -55 -39 -104 -49 -35 -7 -71 -17 -80 -23 -9 -5
-27 -14 -41 -19 -14 -6 -38 -19 -55 -29 -16 -11 -40 -20 -52 -20 -20 -1 -23
-6 -23 -39 0 -30 -8 -47 -35 -76 -19 -21 -35 -42 -35 -46 0 -18 -40 -40 -73
-40 -25 0 -37 -5 -37 -14 0 -7 -15 -25 -33 -39 -18 -14 -44 -41 -57 -60 -14
-20 -33 -38 -42 -41 -10 -2 -18 -12 -18 -21 0 -9 -16 -37 -35 -62 -19 -25 -35
-52 -35 -59 0 -7 -5 -14 -11 -16 -6 -2 -14 -34 -18 -72 -6 -60 -11 -71 -40
-97 -19 -16 -39 -29 -46 -29 -6 0 -16 -16 -21 -37 -9 -38 -21 -48 -66 -58 -19
-3 -28 -12 -28 -24 0 -11 -22 -52 -50 -93 -32 -47 -50 -84 -50 -103 0 -16 -9
-43 -20 -60 -11 -16 -23 -50 -26 -75 -4 -25 -22 -73 -40 -107 -19 -34 -34 -71
-34 -82 0 -11 -4 -23 -10 -26 -5 -3 -10 -14 -10 -24 0 -17 -38 -114 -59 -151
-16 -29 -30 -123 -41 -275 -15 -206 -29 -317 -42 -332 -6 -7 -14 -72 -19 -143
-5 -71 -13 -138 -18 -147 -25 -47 -33 -101 -38 -260 l-6 -173 -23 0 -24 0 0
-635 c0 -417 3 -635 10 -635 6 0 10 35 10 84 0 85 14 121 26 69 4 -15 10 -32
14 -38 13 -20 29 -93 40 -185 12 -100 32 -166 86 -273 8 -16 14 -33 14 -37 0
-5 18 -37 40 -71 22 -34 40 -71 40 -82 0 -11 16 -37 35 -58 19 -22 35 -44 35
-50 0 -14 38 -61 91 -114 39 -40 63 -73 75 -108 3 -9 10 -17 14 -17 5 0 18
-21 30 -47 12 -27 26 -56 31 -65 5 -10 9 -23 9 -30 0 -6 6 -19 13 -27 8 -9 21
-45 31 -81 9 -36 22 -78 27 -95 5 -16 14 -93 19 -170 9 -132 18 -192 41 -275
42 -148 45 -155 155 -296 60 -76 137 -168 171 -202 35 -35 63 -68 63 -72 0 -5
11 -17 24 -27 51 -39 276 -322 276 -348 0 -5 88 -113 136 -167 13 -14 24 -31
24 -38 0 -14 49 -75 121 -149 31 -32 58 -62 60 -67 4 -11 128 -74 144 -74 6 0
26 -10 45 -22 35 -22 138 -68 153 -68 17 0 146 -106 218 -179 78 -79 130 -118
189 -141 19 -7 58 -26 85 -40 28 -15 88 -39 135 -54 47 -15 103 -40 125 -56
22 -17 55 -39 73 -51 17 -12 32 -24 32 -28 0 -4 16 -15 35 -24 36 -17 44 -32
23 -40 -7 -3 503 -6 1135 -6 l1147 -1 0 25 c0 25 1 25 88 25 81 0 90 -2 112
-25 l23 -25 218 0 218 0 3 28 c3 25 8 28 73 40 39 7 102 17 142 22 40 5 81 14
92 19 11 6 38 11 61 11 22 0 57 7 77 15 19 8 42 15 49 15 17 0 107 41 115 52
6 9 146 25 299 35 47 3 89 9 95 14 5 5 25 9 45 9 40 0 119 43 149 81 11 15 35
32 53 40 45 18 149 79 172 101 11 10 23 18 27 18 4 0 14 6 21 13 7 6 29 20 48
30 101 51 210 139 210 170 0 21 51 62 95 76 22 7 48 21 59 30 14 13 41 16 130
16 62 0 114 4 118 10 4 6 8 32 8 59 0 117 58 211 162 265 15 8 83 65 150 128
68 62 140 122 160 132 71 38 84 46 168 112 47 36 95 71 108 78 12 6 41 37 64
68 24 31 65 79 93 108 56 58 95 127 102 186 3 22 10 42 14 45 5 3 9 14 9 25 0
10 5 19 10 19 6 0 10 7 10 15 0 11 11 15 39 15 32 0 46 7 71 33 29 30 80 123
80 146 0 5 6 16 14 23 13 13 23 49 46 156 5 24 19 55 30 70 45 58 91 128 103
154 6 16 15 28 19 28 4 0 8 7 8 15 0 8 11 43 24 77 13 35 29 81 36 103 7 22
18 47 25 55 7 8 15 33 17 55 3 22 19 68 36 102 16 35 36 94 43 133 7 39 16 73
21 76 4 3 8 13 8 22 0 20 50 119 90 179 15 22 34 58 40 80 7 21 19 55 26 76 8
20 14 52 14 70 0 39 25 114 45 133 7 8 21 14 29 14 14 0 16 45 16 425 0 349
-2 425 -13 425 -11 0 -15 -31 -20 -129 -47 -922 -371 -1825 -920 -2567 -667
-902 -1626 -1543 -2701 -1805 -232 -57 -438 -93 -661 -114 -670 -65 -1342 7
-1959 210 -739 243 -1358 625 -1911 1179 -530 531 -928 1185 -1160 1906 -167
522 -246 1132 -216 1673 18 336 69 675 135 912 l25 90 -7 -110 c-11 -175 -7
-620 6 -735 110 -910 492 -1679 1129 -2272 165 -154 406 -333 581 -434 23 -13
35 -30 43 -59 70 -268 184 -479 353 -651 l61 -63 -43 -73 c-56 -96 -116 -253
-138 -358 -62 -311 98 -553 425 -642 103 -28 366 -31 486 -5 268 59 558 208
751 386 149 137 296 337 380 516 26 55 48 101 49 103 1 1 27 -6 56 -17 328
-120 689 -158 1051 -111 672 87 1260 457 1643 1035 127 190 275 497 335 690 7
22 16 44 20 49 5 5 53 23 107 40 625 204 1154 846 1234 1500 24 200 -5 433
-75 589 -58 130 -197 298 -312 374 l-52 35 14 41 c26 72 63 227 84 357 31 180
38 514 16 670 -84 575 -430 1085 -943 1387 -204 120 -510 217 -773 244 -151
16 -377 5 -540 -25 -74 -14 -153 -28 -174 -32 -22 -3 -90 -22 -151 -42 l-112
-37 -79 63 c-225 181 -562 374 -844 485 -613 240 -1319 290 -1950 137 -69 -17
-160 -42 -203 -56 -43 -14 -81 -24 -84 -21 -5 6 241 128 372 184 120 52 117
53 -50 19z m3854 -1031 c308 -45 583 -161 791 -334 308 -256 510 -599 576
-981 29 -169 11 -480 -40 -705 -73 -316 -250 -632 -458 -817 -98 -88 -113 -99
-208 -163 -324 -217 -747 -336 -1255 -352 -370 -11 -659 30 -904 128 -228 91
-411 263 -479 448 -21 59 -46 200 -37 210 2 2 26 -14 52 -36 264 -221 707
-360 1203 -379 414 -15 896 92 1218 272 104 58 266 170 326 225 49 45 59 60
80 127 79 252 98 831 35 1066 -20 75 -118 143 -342 240 -621 268 -1365 369
-1913 260 -145 -28 -331 -83 -421 -124 -37 -17 -68 -29 -70 -26 -2 2 37 55 86
119 382 489 774 753 1221 821 130 19 406 20 539 1z m-4328 -478 c16 -53 26
-67 51 -67 27 0 80 -29 73 -40 -3 -5 -25 -15 -48 -21 -48 -13 -67 -25 -67 -46
0 -7 -7 -30 -16 -51 l-16 -37 -15 35 c-33 77 -38 82 -91 102 -29 11 -50 24
-47 28 3 5 25 15 48 21 53 16 64 24 71 54 21 85 38 91 57 22z m1071 -339 c8
-18 23 -59 32 -90 19 -65 35 -79 110 -97 63 -15 108 -39 100 -52 -8 -14 -80
-44 -125 -53 -46 -8 -73 -39 -88 -100 -14 -57 -37 -106 -51 -106 -14 0 -37 49
-51 106 -16 66 -41 91 -103 104 -28 6 -67 20 -85 31 -32 19 -33 21 -14 34 10
7 43 21 73 30 90 27 104 37 119 85 19 62 53 140 61 140 3 0 13 -15 22 -32z
m2473 -137 l40 -9 -50 -1 c-122 -3 -424 -57 -529 -94 l-39 -13 33 -24 c73 -52
94 -189 43 -290 -58 -116 -168 -190 -293 -198 -122 -7 -196 33 -245 133 l-22
47 -33 -53 c-65 -107 -106 -245 -119 -406 -8 -104 0 -326 15 -409 l7 -39 -20
25 c-59 74 -89 178 -99 345 -16 265 58 565 173 706 95 116 293 207 553 253
165 30 497 45 585 27z m-3905 -736 c18 -70 27 -78 120 -106 64 -20 58 -40 -16
-64 -76 -25 -90 -36 -99 -83 -4 -20 -14 -50 -22 -66 -15 -29 -16 -29 -30 -10
-7 10 -21 42 -29 71 -17 59 -26 68 -74 78 -49 10 -92 34 -87 48 2 6 32 21 67
33 64 21 90 43 90 76 0 10 10 37 21 60 20 40 22 41 35 23 8 -11 19 -38 24 -60z
m3580 57 c19 -10 50 -40 68 -66 26 -40 32 -58 32 -103 0 -98 -50 -153 -138
-153 -123 0 -211 150 -155 267 32 68 120 93 193 55z m2685 -1078 c22 -32 34
-58 29 -66 -4 -7 -3 -9 1 -5 5 4 14 -2 20 -14 9 -16 9 -40 -1 -97 -64 -369
-222 -685 -480 -960 -303 -323 -743 -569 -1230 -686 -69 -17 -72 -19 -77 -51
-12 -71 -59 -149 -141 -230 -72 -71 -211 -174 -220 -164 -2 2 -16 27 -31 54
-96 169 -296 357 -523 492 l-32 19 117 0 c146 1 181 14 283 110 115 109 210
257 210 328 0 46 -32 145 -63 199 -36 62 -88 103 -149 122 -152 46 -456 76
-778 79 -186 1 -197 0 -233 -21 -21 -13 -40 -23 -43 -23 -10 0 9 46 37 87 l28
42 -26 -10 c-53 -20 -96 -56 -140 -116 l-30 -42 -64 66 c-137 139 -340 251
-532 294 -68 15 -73 25 -62 125 13 121 62 230 152 336 46 54 118 118 133 118
4 0 17 -28 29 -62 29 -81 101 -206 163 -285 217 -275 603 -456 1093 -514 206
-25 600 -13 764 22 24 5 46 8 48 5 3 -3 -4 -18 -16 -35 -46 -65 -84 -162 -89
-230 -5 -77 12 -171 36 -201 17 -20 17 -19 20 27 4 82 61 182 161 282 154 155
321 266 503 335 405 154 754 415 949 712 l62 95 43 -42 c23 -23 59 -66 79 -95z
m121 -291 c7 -38 13 -102 14 -143 2 -511 -346 -1065 -885 -1407 -186 -118
-475 -240 -686 -290 -64 -15 -105 -29 -97 -34 17 -9 150 -29 211 -31 27 -1 51
-6 53 -13 3 -6 -9 -51 -26 -99 -99 -280 -236 -516 -424 -728 -72 -82 -251
-248 -267 -248 -3 0 2 37 13 83 58 249 33 581 -61 790 -17 38 -31 73 -31 77 0
5 32 30 72 56 143 95 252 218 294 332 10 26 18 48 19 49 1 2 66 21 144 43 668
189 1198 594 1460 1118 77 154 171 432 171 506 0 37 13 6 26 -61z m-6255 -475
c-109 -59 -214 -220 -246 -378 -19 -88 -21 -244 -5 -332 32 -174 143 -385 279
-531 42 -45 44 -49 27 -65 -17 -16 -21 -14 -73 43 -147 159 -243 325 -289 501
-21 80 -26 123 -27 224 -1 185 35 308 121 417 53 66 97 99 163 123 75 27 102
25 50 -2z m1883 -53 c209 -28 364 -101 497 -234 196 -196 295 -472 318 -883
13 -232 -2 -442 -51 -742 -10 -65 -17 -120 -14 -123 5 -6 95 224 135 347 33
103 91 336 91 369 0 31 14 33 81 10 169 -59 320 -194 415 -373 196 -369 153
-847 -101 -1114 -38 -41 -89 -88 -113 -104 l-44 -31 -197 6 c-295 8 -470 50
-716 172 -441 220 -739 639 -830 1170 -37 213 -39 546 -4 764 5 35 8 65 6 68
-7 6 -68 -145 -112 -272 l-37 -110 -66 32 c-36 17 -98 42 -138 54 l-71 22 -21
71 c-65 216 -55 366 34 543 51 103 132 198 216 256 60 42 203 79 388 102 141
17 205 17 334 0z m1341 -155 c219 -12 431 -35 528 -56 55 -13 67 -19 67 -35 0
-94 -140 -202 -305 -236 -74 -15 -100 -15 -355 1 -151 9 -287 19 -302 22 -21
4 -30 15 -43 52 -8 26 -29 71 -45 101 -23 42 -27 57 -18 63 152 101 169 104
473 88z m-120 -380 c94 -6 197 -13 230 -16 52 -6 57 -8 35 -16 -35 -13 -168
-34 -271 -43 -107 -8 -143 -27 -160 -85 -10 -32 -17 -40 -33 -38 -17 3 -22 15
-32 78 -7 41 -16 90 -20 108 l-7 34 44 -6 c24 -3 121 -10 214 -16z m-40 -343
c77 -19 250 -86 243 -93 -2 -2 -31 4 -63 13 -36 10 -104 16 -170 17 -97 1
-115 -2 -147 -21 l-38 -22 0 23 c0 13 3 44 6 70 l7 46 41 -6 c22 -3 77 -15
121 -27z m-1931 -403 c27 -6 28 -9 22 -48 -22 -152 -29 -279 -20 -372 l9 -101
-40 17 c-49 21 -105 32 -105 21 0 -4 22 -26 49 -49 26 -22 56 -58 66 -79 l18
-37 -59 -53 c-133 -120 -270 -196 -479 -265 -99 -33 -293 -33 -375 0 -82 32
-149 78 -161 109 -7 18 -9 74 -6 148 4 94 11 136 31 193 98 280 364 472 731
526 39 6 282 -2 319 -10z m-5 -900 c-74 -82 -280 -205 -424 -254 -87 -30 -215
-50 -317 -50 -106 0 -105 15 -13 -170 66 -134 130 -243 176 -301 16 -20 29
-42 29 -48 0 -6 -35 -73 -79 -149 -43 -75 -100 -179 -127 -229 -46 -86 -64
-110 -64 -81 0 24 95 249 151 356 l59 113 -74 88 c-82 97 -182 240 -240 344
-37 65 -109 227 -102 227 2 0 28 -11 57 -24 249 -113 620 -49 919 158 76 53
82 55 49 20z"/>
<path d="M11720 10476 c0 -2 7 -6 15 -10 8 -3 15 -1 15 4 0 6 -7 10 -15 10 -8
0 -15 -2 -15 -4z"/>
</g>
</svg>
